<svg width="1080" height="332" viewBox="0 0 1080 332" fill="none" xmlns="http://www.w3.org/2000/svg">
<rect width="1080" height="332" fill="none"/>
<path d="M185.059 208.163C180.583 212.604 176.396 216.733 172.234 220.9C169.363 223.77 169.376 225.554 172.309 228.473C175.744 231.891 179.204 235.284 182.652 238.69L182.339 239.426C178.597 238.636 174.902 237.645 171.269 236.457C143.078 225.645 127.345 205.269 124.068 175.328C123.919 174.377 124.015 173.403 124.349 172.5C124.682 171.596 125.242 170.792 125.974 170.163C130.525 165.859 134.888 161.355 139.539 156.714C140.366 157.488 141.106 158.137 141.808 158.823C143.876 160.856 145.819 163.027 148.001 164.936C152.555 168.712 155.655 173.939 156.776 179.731C159.71 193.517 168.849 202.512 182.226 207.177C182.94 207.464 183.73 207.714 185.059 208.163Z" fill="#FCFCFC"/>
<path d="M231.833 179.494C236.095 183.749 240.182 187.84 244.294 191.97C247.516 195.188 249.309 195.176 252.543 191.907C255.778 188.639 259.238 185.171 263.174 181.216C262.258 188.046 260.198 194.674 257.082 200.827C244.696 224.668 225.088 237.929 198.059 240C196.539 240.002 195.075 239.432 193.96 238.403C189.259 233.999 184.758 229.383 180.057 224.68C185.172 219.565 190.086 214.6 195.101 209.71C195.838 209.19 196.706 208.883 197.608 208.824C214.658 206.554 225.778 197.222 231.156 181.016C231.369 180.642 231.545 180.231 231.833 179.494Z" fill="#FCFCFC"/>
<path d="M156.262 161.655C151.862 157.276 147.775 153.196 143.726 149.179C140.617 146.11 138.799 146.11 135.677 149.179C132.352 152.646 128.814 155.904 125.084 158.935C125.31 157.688 125.485 156.44 125.748 155.192C132.142 125.364 159.735 102.06 189.785 101.024C190.607 100.945 191.436 101.06 192.205 101.359C192.974 101.658 193.661 102.133 194.211 102.746C198.699 107.362 203.312 111.866 208.001 116.469C202.986 121.459 198.197 126.25 193.296 131.003C192.526 131.646 191.585 132.053 190.588 132.175C172.698 134.87 162.042 143.877 156.262 161.655Z" fill="#FCFCFC"/>
<path d="M248.457 184.46C243.266 179.307 238.289 174.392 233.413 169.402C232.986 168.811 232.742 168.108 232.711 167.381C230.391 150.14 221.089 138.688 204.29 133.46C203.912 133.277 203.551 133.059 203.212 132.812L214.182 121.958C219.309 116.856 219.309 116.12 214.182 110.98L205.857 102.634C205.744 102.521 205.757 102.284 205.644 101.873C214.565 103.2 223.107 106.374 230.717 111.192C251.139 124.191 262.297 142.779 263.989 166.882C264.065 167.952 263.734 169.012 263.062 169.851C258.285 174.691 253.471 179.407 248.457 184.46Z" fill="#FCFCFC"/>
<path d="M364.019 208.165C358.762 209.477 353.355 210.09 347.937 209.989C331.531 209.989 316 201.381 316 175.729V162.21C316 136.571 331.531 128.062 347.937 128.062C353.355 127.962 358.762 128.575 364.019 129.887C365.52 130.324 366.384 130.749 366.384 132.261V142.706C366.423 142.998 366.394 143.295 366.3 143.574C366.205 143.853 366.048 144.107 365.84 144.315C365.632 144.524 365.379 144.683 365.1 144.778C364.821 144.874 364.524 144.905 364.231 144.868H364.019C359.914 144.543 354.007 144.006 348.05 144.006C340.604 144.006 334.659 147.879 334.659 162.21V175.779C334.659 190.11 340.604 193.996 348.05 193.996C353.982 193.996 359.914 193.447 364.019 193.134H364.231C364.523 193.098 364.819 193.128 365.097 193.223C365.374 193.318 365.627 193.475 365.835 193.683C366.042 193.89 366.2 194.142 366.295 194.419C366.39 194.697 366.421 194.992 366.384 195.283V205.741C366.384 207.191 365.558 207.728 364.019 208.165Z" fill="#FCFCFC"/>
<path d="M408.471 209.989C390.662 209.989 376.533 200.406 376.533 175.404V162.585C376.533 137.596 390.662 128.013 408.471 128.013C426.279 128.013 440.408 137.596 440.408 162.585V175.404C440.408 200.406 426.279 209.989 408.471 209.989ZM421.874 162.585C421.874 149.666 417.556 144.168 408.496 144.168C399.435 144.168 395.218 149.666 395.218 162.585V175.404C395.218 188.336 399.435 193.834 408.496 193.834C417.556 193.834 421.874 188.336 421.874 175.404V162.585Z" fill="#FCFCFC"/>
<path d="M514.007 209.027H499.54C499.268 209.02 499 208.957 498.754 208.843C498.507 208.728 498.286 208.565 498.104 208.363C497.923 208.161 497.785 207.924 497.698 207.666C497.611 207.409 497.578 207.136 497.6 206.866V158.824C497.6 146.754 493.608 143.831 484.76 143.831C480.542 143.801 476.326 144.018 472.133 144.48V206.853C472.145 207.131 472.1 207.408 472.003 207.668C471.905 207.928 471.756 208.166 471.565 208.368C471.373 208.569 471.143 208.73 470.888 208.842C470.633 208.953 470.359 209.012 470.08 209.015H455.739C455.46 209.012 455.186 208.953 454.931 208.842C454.676 208.73 454.446 208.569 454.254 208.368C454.063 208.166 453.914 207.928 453.816 207.668C453.719 207.408 453.674 207.131 453.686 206.853V136.509C453.686 131.661 454.938 130.474 459.193 129.824C466.993 128.797 474.842 128.188 482.708 128C503.645 128 516.059 133.81 516.059 158.812V206.853C516.073 207.132 516.03 207.41 515.933 207.672C515.836 207.933 515.688 208.173 515.496 208.376C515.304 208.579 515.074 208.741 514.818 208.853C514.562 208.965 514.286 209.024 514.007 209.027Z" fill="#FCFCFC"/>
<path d="M553.065 209.989C546.192 210.077 539.336 209.284 532.666 207.628C531.59 207.303 530.514 206.653 530.514 205.466V194.908C530.472 194.64 530.493 194.365 530.574 194.105C530.656 193.846 530.795 193.608 530.982 193.411C531.169 193.213 531.399 193.061 531.654 192.965C531.909 192.869 532.182 192.833 532.453 192.859H532.779C537.209 193.297 549.048 194.109 553.278 194.109C560.724 194.109 562.889 191.735 562.889 186.612C562.889 183.488 561.375 181.764 555.768 178.428L540.876 169.594C530.864 163.672 528.136 156.875 528.136 149.016C528.136 137.159 534.831 128.013 555.768 128.013C563.452 128.064 571.113 128.854 578.645 130.374C579.106 130.441 579.526 130.676 579.823 131.034C580.121 131.391 580.277 131.846 580.259 132.311V143.193C580.292 143.441 580.267 143.693 580.187 143.93C580.107 144.167 579.973 144.382 579.797 144.559C579.621 144.736 579.406 144.871 579.169 144.953C578.933 145.034 578.681 145.061 578.432 145.03H578.207C575.191 144.818 562.676 143.843 555.33 143.843C549.186 143.843 546.92 145.68 546.92 149.553C546.92 152.564 548.322 153.976 554.141 157.05L567.907 164.547C579.171 170.569 582.474 177.691 582.474 186.412C582.525 197.82 574.978 209.989 553.065 209.989Z" fill="#FCFCFC"/>
<path d="M645.436 144.168H627.915V206.866C627.915 207.437 627.689 207.985 627.286 208.39C626.882 208.795 626.335 209.024 625.763 209.027H611.621C611.049 209.024 610.502 208.795 610.098 208.39C609.695 207.985 609.469 207.437 609.469 206.866V144.168H591.911C591.633 144.18 591.356 144.136 591.096 144.038C590.836 143.94 590.599 143.792 590.398 143.6C590.197 143.409 590.037 143.179 589.927 142.925C589.817 142.67 589.759 142.396 589.758 142.119V130.974C589.759 130.697 589.817 130.422 589.927 130.168C590.037 129.913 590.197 129.684 590.398 129.492C590.599 129.301 590.836 129.152 591.096 129.055C591.356 128.957 591.633 128.913 591.911 128.925H645.436C646.008 128.897 646.568 129.098 646.992 129.482C647.417 129.866 647.672 130.402 647.701 130.974V142.069C647.693 142.356 647.628 142.639 647.509 142.9C647.39 143.162 647.22 143.398 647.01 143.593C646.799 143.788 646.551 143.94 646.281 144.039C646.01 144.137 645.723 144.181 645.436 144.168Z" fill="#FCFCFC"/>
<path d="M715.793 209.027H701.551C701.278 209.021 701.01 208.96 700.761 208.846C700.513 208.733 700.291 208.57 700.108 208.367C699.925 208.165 699.785 207.927 699.698 207.669C699.611 207.411 699.577 207.137 699.599 206.866V180.627H676.184V206.866C676.196 207.143 676.152 207.42 676.054 207.68C675.957 207.941 675.808 208.179 675.616 208.38C675.425 208.582 675.195 208.743 674.94 208.854C674.685 208.965 674.41 209.024 674.132 209.027H659.89C659.318 209.024 658.771 208.795 658.367 208.39C657.964 207.985 657.738 207.437 657.738 206.866V151.89C657.738 132.498 669.501 128.15 683.956 128.15H691.84C706.294 128.15 717.946 132.461 717.946 151.89V206.866C717.946 207.437 717.719 207.985 717.316 208.39C716.913 208.795 716.365 209.024 715.793 209.027ZM699.599 151.927C699.599 145.992 697.885 144.168 691.84 144.168H683.956C678.024 144.168 676.184 145.992 676.184 151.927V165.496H699.599V151.927Z" fill="#FCFCFC"/>
<path d="M793.159 209.027H778.704C778.431 209.021 778.162 208.96 777.914 208.846C777.666 208.733 777.443 208.57 777.261 208.367C777.078 208.165 776.938 207.927 776.851 207.669C776.763 207.411 776.73 207.137 776.752 206.866V158.824C776.752 146.754 772.76 143.831 763.912 143.831C759.698 143.8 755.486 144.017 751.297 144.48V206.853C751.307 207.13 751.262 207.407 751.164 207.666C751.065 207.925 750.916 208.163 750.725 208.364C750.534 208.565 750.305 208.726 750.051 208.838C749.796 208.95 749.522 209.01 749.245 209.015H734.89C734.612 209.012 734.337 208.953 734.082 208.842C733.827 208.73 733.597 208.569 733.406 208.368C733.215 208.166 733.066 207.928 732.968 207.668C732.87 207.408 732.826 207.131 732.838 206.853V136.509C732.838 131.661 734.09 130.474 738.344 129.824C746.149 128.796 754.002 128.187 761.872 128C782.797 128 795.211 133.81 795.211 158.812V206.853C795.225 207.132 795.182 207.41 795.085 207.672C794.988 207.933 794.839 208.173 794.648 208.376C794.456 208.579 794.226 208.741 793.97 208.853C793.714 208.965 793.438 209.024 793.159 209.027Z" fill="#FCFCFC"/>
<path d="M856.495 208.165C851.243 209.477 845.84 210.09 840.427 209.989C824.02 209.989 808.477 201.381 808.477 175.729V162.21C808.477 136.571 824.02 128.062 840.427 128.062C845.84 127.962 851.243 128.575 856.495 129.887C858.01 130.324 858.873 130.749 858.873 132.261V142.706C858.909 142.998 858.879 143.293 858.783 143.571C858.688 143.849 858.531 144.102 858.324 144.31C858.116 144.518 857.864 144.676 857.586 144.773C857.309 144.87 857.013 144.902 856.721 144.868H856.495C852.403 144.543 846.484 144.006 840.527 144.006C833.08 144.006 827.148 147.879 827.148 162.21V175.779C827.148 190.11 833.08 193.996 840.527 193.996C846.459 193.996 852.403 193.446 856.495 193.134H856.721C857.011 193.1 857.306 193.132 857.583 193.228C857.86 193.324 858.111 193.481 858.318 193.688C858.525 193.895 858.683 194.146 858.779 194.422C858.875 194.698 858.907 194.993 858.873 195.283V205.741C858.873 207.191 858.01 207.728 856.495 208.165Z" fill="#FCFCFC"/>
<path d="M931.821 131.349L908.506 177.778V206.866C908.518 207.142 908.474 207.418 908.377 207.678C908.281 207.937 908.133 208.174 907.943 208.376C907.753 208.577 907.524 208.739 907.27 208.85C907.017 208.962 906.743 209.022 906.466 209.027H891.999C891.727 209.021 891.458 208.96 891.211 208.846C890.963 208.733 890.742 208.569 890.56 208.367C890.378 208.164 890.24 207.926 890.154 207.668C890.068 207.41 890.036 207.137 890.06 206.866V177.778L866.745 131.349C866.574 131.054 866.5 130.713 866.532 130.374C866.534 130.172 866.579 129.973 866.663 129.79C866.748 129.607 866.871 129.443 867.023 129.311C867.176 129.179 867.355 129.08 867.549 129.022C867.742 128.964 867.946 128.948 868.146 128.975H884.015C885.091 128.975 885.629 129.837 886.067 130.811L899.333 159.899L912.448 130.811C912.886 129.837 913.537 128.975 914.613 128.975H930.369C930.57 128.948 930.773 128.964 930.967 129.022C931.161 129.08 931.34 129.179 931.492 129.311C931.645 129.443 931.768 129.607 931.852 129.79C931.937 129.973 931.982 130.172 931.984 130.374C932.031 130.708 931.974 131.048 931.821 131.349Z" fill="#FCFCFC"/>
</svg>
